<?xml version="1.0" standalone="no"?>
<!DOCTYPE svg PUBLIC "-//W3C//DTD SVG 20010904//EN"
 "http://www.w3.org/TR/2001/REC-SVG-20010904/DTD/svg10.dtd">
<svg version="1.0" xmlns="http://www.w3.org/2000/svg"
 width="2592.000000pt" height="2311.000000pt" viewBox="0 0 2592.000000 2311.000000"
 preserveAspectRatio="xMidYMid meet">

<g transform="translate(0.000000,2311.000000) scale(0.100000,-0.100000)"
fill="#000000" stroke="none">
<path d="M19620 23095 c-484 -65 -968 -228 -1546 -521 -1022 -519 -2160 -1362
-3404 -2524 -508 -474 -1316 -1303 -1851 -1900 -548 -611 -1026 -1177 -1010
-1193 7 -7 14 -7 19 -2 5 6 55 66 112 135 1182 1423 2516 2792 3655 3749 211
177 195 165 285 236 41 33 80 64 86 70 6 5 26 21 44 35 57 43 135 103 140 109
3 4 23 19 45 36 22 16 45 33 50 38 27 22 325 243 435 321 386 276 773 521
1152 729 172 95 373 197 385 197 5 -1 -41 -26 -102 -58 -66 -34 -109 -62 -107
-70 1 -8 -2 -11 -7 -7 -31 19 -572 -309 -996 -603 -1460 -1012 -3161 -2614
-4756 -4477 -386 -452 -403 -473 -388 -493 8 -9 -128 125 -301 298 -491 492
-1074 1050 -1557 1488 l-91 83 54 72 c119 159 167 300 167 502 1 154 -14 227
-74 354 -102 219 -286 376 -524 447 -117 35 -298 39 -415 10 -154 -38 -335
-144 -428 -252 l-37 -42 -260 209 c-1533 1237 -2740 1946 -3565 2095 -142 26
-380 23 -485 -5 -131 -35 -220 -84 -302 -167 -83 -84 -108 -121 -151 -226
-340 -822 458 -2874 2191 -5633 97 -154 172 -281 168 -283 -5 -1 -115 9 -245
23 -280 30 -282 30 -267 12 8 -10 8 -156 1 -538 l-10 -524 -28 -23 c-33 -27
-156 -76 -232 -91 -30 -6 -61 -15 -67 -19 -16 -10 610 -76 702 -74 83 1 194
33 232 66 l27 23 4 334 c2 184 7 398 10 476 l7 143 210 -317 c333 -503 658
-974 1014 -1472 72 -101 129 -186 127 -188 -2 -2 -110 8 -240 22 -265 28 -288
29 -267 16 13 -8 11 -233 -13 -1743 -15 -953 -29 -1746 -32 -1763 -2 -16 -49
-113 -105 -215 -257 -472 -662 -1273 -904 -1790 -152 -324 -395 -866 -395
-881 0 -10 -21 -16 -295 -78 -772 -175 -1578 -332 -2185 -425 -245 -37 -755
-104 -902 -118 l-38 -4 -16 56 c-8 30 -20 72 -26 93 l-11 37 -334 0 -333 0 0
-114 0 -114 -55 -7 c-30 -3 -151 -4 -268 0 -516 15 -861 100 -1010 248 -66 65
-90 123 -90 212 5 500 1136 1395 3128 2472 484 262 1224 639 1665 848 198 93
240 118 228 130 -12 12 -1065 -507 -1573 -776 -726 -383 -1364 -752 -1887
-1093 -65 -42 -118 -74 -118 -71 0 7 297 201 490 322 476 296 1040 614 1670
944 297 155 1393 699 1409 699 6 0 11 16 11 35 0 19 -2 35 -3 35 -11 0 -612
-292 -947 -460 -1919 -960 -3236 -1788 -3881 -2440 -208 -211 -331 -384 -384
-545 -36 -107 -33 -223 8 -307 54 -109 181 -203 358 -263 223 -76 458 -105
906 -112 l343 -6 2 -1601 3 -1601 232 -3 233 -2 2 1336 3 1337 386 -1334 387
-1334 210 -3 211 -2 24 77 c13 43 187 632 388 1309 l364 1232 5 -1307 5 -1306
208 -3 c118 -1 207 -6 207 -12 0 -5 -9 -69 -19 -142 -53 -359 -71 -612 -71
-968 1 -696 118 -1192 376 -1586 79 -122 280 -321 397 -393 341 -210 758 -269
1277 -180 1253 216 2982 1318 4881 3112 l177 167 56 0 56 0 -16 38 -15 39 208
205 207 206 47 -77 c130 -209 279 -329 478 -383 104 -29 363 -32 461 -5 102
27 219 88 283 146 l57 53 0 -93 c-1 -283 -61 -475 -181 -584 -165 -149 -551
-155 -706 -12 -56 51 -69 78 -98 191 l-23 91 -208 37 c-115 20 -215 37 -223
37 -12 1 -13 -19 -7 -115 8 -141 28 -247 66 -336 94 -227 316 -389 606 -444
124 -23 405 -15 515 14 175 47 317 128 439 251 157 158 234 354 270 691 8 73
11 472 10 1300 l-1 1196 157 187 c86 103 159 187 163 187 3 0 89 -83 190 -184
l185 -185 -45 -48 c-102 -109 -175 -252 -220 -430 -36 -141 -36 -161 -6 -168
80 -17 410 -64 418 -60 5 4 9 14 9 23 0 35 78 241 109 290 55 87 43 91 213
-75 84 -81 208 -200 275 -264 l121 -116 -121 -21 c-67 -12 -185 -31 -261 -42
-301 -46 -441 -101 -592 -231 -103 -89 -170 -196 -219 -349 -52 -160 -45 -403
15 -562 56 -149 199 -307 342 -377 235 -116 582 -104 850 30 80 40 216 129
247 163 28 30 51 34 51 8 0 -16 43 -150 65 -204 7 -16 28 -18 247 -18 224 0
240 1 235 18 -3 9 -22 58 -41 109 -51 130 -66 192 -76 318 -10 118 -14 475 -5
475 3 0 84 -70 179 -155 l173 -155 33 -92 c78 -225 211 -383 407 -482 65 -32
203 -73 280 -81 56 -7 63 -11 198 -121 865 -708 1691 -1291 2377 -1678 179
-100 570 -291 723 -351 350 -138 597 -196 849 -198 339 -3 562 122 684 382 19
41 35 85 36 98 0 13 5 23 10 23 4 0 6 9 3 20 -3 10 -1 20 5 22 5 2 10 26 11
53 1 28 6 53 10 56 14 11 20 281 8 409 -30 326 -132 744 -285 1170 -31 85 -56
160 -56 166 0 7 17 19 39 27 63 25 191 105 264 163 47 38 67 50 67 38 0 -9 16
-65 36 -125 l36 -109 244 0 244 0 -16 37 c-40 91 -94 264 -104 332 -14 101
-31 868 -28 1286 2 288 0 354 -15 434 -41 218 -154 383 -321 468 -152 77 -264
102 -481 109 -255 9 -429 -24 -620 -117 -148 -72 -247 -171 -330 -330 l-41
-80 -13 28 c-21 47 -332 587 -477 829 -244 408 -473 773 -769 1228 l-169 260
24 1428 c24 1474 23 1817 -5 2048 -17 145 -53 325 -86 429 -11 36 -16 68 -12
71 5 4 150 70 323 147 412 184 867 393 1215 560 l280 133 19 -27 c11 -16 53
-62 95 -104 277 -277 713 -317 1042 -98 169 114 287 280 340 480 32 119 32
301 1 413 -26 89 -30 80 61 127 363 187 1096 612 1496 867 642 408 1079 738
1397 1056 226 227 363 419 408 575 20 69 21 204 1 262 -136 397 -1084 511
-2638 318 -783 -97 -1715 -267 -2746 -500 -168 -38 -306 -67 -308 -65 -2 1 32
88 75 192 44 104 87 211 97 237 18 47 20 48 49 43 17 -4 92 -9 167 -13 110 -4
153 -2 215 12 502 110 786 656 588 1127 -74 176 -222 337 -384 418 -25 12 -46
24 -48 25 -1 1 25 94 58 206 101 337 216 779 280 1079 281 1314 261 2364 -59
3025 -126 262 -272 438 -497 598 -124 89 -349 177 -544 213 -120 22 -455 27
-590 9z m355 -194 c803 -67 1254 -637 1356 -1711 15 -158 15 -589 0 -785 -50
-654 -209 -1449 -448 -2242 l-46 -153 -41 8 c-80 14 -297 8 -366 -11 -142 -38
-284 -122 -386 -229 -101 -105 -171 -227 -210 -368 -28 -101 -26 -320 4 -424
61 -212 199 -392 383 -497 32 -19 59 -38 59 -43 0 -8 -169 -426 -211 -520 -13
-30 -27 -47 -42 -51 -85 -18 -966 -239 -1202 -300 -631 -165 -1355 -368 -2080
-581 -376 -111 -1365 -413 -1420 -434 l-26 -10 3 114 c3 123 -2 140 -50 149
-40 8 -119 -10 -189 -42 -37 -18 -183 -124 -372 -270 -171 -133 -321 -246
-335 -252 -21 -10 -28 -7 -58 27 -19 22 -126 143 -239 269 -406 458 -868 963
-1308 1430 -372 394 -444 466 -458 461 -7 -3 -10 1 -7 9 4 9 -69 90 -195 218
-111 113 -201 210 -201 215 0 26 609 735 1044 1217 392 433 594 645 1125 1176
527 527 831 814 1235 1168 1461 1278 2768 2089 3816 2369 115 31 315 70 420
81 52 6 109 13 125 15 62 7 214 5 320 -3z m-15528 -867 c-3 -3 -12 -4 -19 -1
-8 3 -5 6 6 6 11 1 17 -2 13 -5z m-112 -34 c3 -6 -1 -7 -9 -4 -18 7 -21 14 -7
14 6 0 13 -4 16 -10z m-25 -11 c11 -8 9 -9 -10 -3 -22 6 -23 5 -11 -10 7 -9 9
-16 3 -16 -5 0 -15 6 -21 14 -9 11 -9 15 1 19 19 8 22 8 38 -4z m678 -24 c623
-130 1549 -638 2637 -1445 281 -208 881 -677 953 -745 11 -10 8 -23 -18 -75
-54 -107 -73 -197 -74 -350 0 -110 4 -149 22 -212 66 -234 205 -409 413 -521
257 -139 590 -126 833 33 l73 48 224 -206 c332 -304 681 -635 1074 -1019 514
-501 599 -588 589 -604 -4 -8 -76 -97 -159 -199 -545 -667 -1154 -1467 -1714
-2253 -140 -196 -514 -733 -562 -807 l-16 -24 -94 31 c-175 58 -294 76 -489
76 -237 0 -445 -37 -630 -112 -41 -17 -77 -27 -80 -23 -3 4 -124 174 -270 377
-1916 2677 -3253 5102 -3611 6550 -70 282 -91 424 -96 660 -4 170 -2 227 11
299 20 104 62 224 100 284 84 134 234 232 399 262 95 17 349 4 485 -25z m4477
-2009 c168 -83 251 -252 219 -443 -20 -119 -105 -227 -223 -286 -62 -30 -72
-32 -176 -32 -104 0 -114 2 -176 32 -82 41 -150 111 -192 201 -30 62 -32 75
-31 167 0 86 4 108 26 155 55 119 135 191 255 231 93 31 204 21 298 -25z
m-4735 -1221 c0 -5 -5 -3 -10 5 -5 8 -10 20 -10 25 0 6 5 3 10 -5 5 -8 10 -19
10 -25z m60 -119 c0 -12 -5 -7 -19 24 -11 24 -11 24 3 6 9 -11 16 -24 16 -30z
m121 -238 c643 -1279 1646 -2886 2848 -4561 106 -148 191 -273 188 -280 -5
-16 -480 649 -863 1208 -259 377 -690 1031 -701 1064 -3 9 -14 25 -24 36 -54
62 -581 926 -841 1380 -317 554 -739 1355 -713 1355 2 0 50 -91 106 -202z
m15867 -551 c10 -9 39 -24 65 -33 93 -32 187 -164 208 -294 27 -168 -75 -351
-238 -428 -52 -24 -70 -27 -163 -27 -97 0 -110 2 -172 32 -185 87 -278 293
-219 482 43 137 136 231 276 278 58 19 218 13 243 -10z m-9011 -993 c2 -5 -23
-41 -55 -79 -378 -451 -1129 -1425 -1533 -1990 -322 -449 -905 -1314 -1364
-2025 -679 -1051 -1343 -2184 -1880 -3210 -65 -124 -192 -362 -283 -530 -324
-598 -620 -1222 -968 -2037 -71 -166 -130 -300 -132 -299 -10 11 535 1309 557
1326 3 3 7 12 9 21 6 42 218 469 775 1569 29 58 65 125 79 150 14 25 48 88 76
140 206 393 617 1112 964 1688 1073 1782 2300 3531 3606 5140 114 140 140 164
149 136z m399 -406 c475 -494 528 -550 695 -728 423 -452 852 -925 1292 -1421
l67 -77 -507 -170 c-698 -234 -1873 -646 -2108 -740 -27 -11 -53 -20 -58 -20
-25 -1 -107 -27 -107 -34 0 -5 -4 -7 -9 -4 -13 8 -72 -14 -65 -25 3 -5 -1 -6
-9 -3 -8 3 -46 -9 -83 -26 -38 -18 -233 -94 -434 -170 -201 -76 -459 -174
-575 -218 -115 -44 -216 -82 -223 -84 -9 -2 -23 24 -41 72 -116 313 -274 517
-538 693 l-91 61 62 90 c313 452 436 627 600 856 381 531 751 1024 1155 1540
243 309 614 769 622 770 3 0 163 -163 355 -362z m12566 22 c635 -35 952 -175
975 -430 5 -46 0 -77 -20 -142 -146 -467 -1021 -1169 -2542 -2040 -217 -124
-659 -368 -668 -368 -2 0 -24 30 -48 66 -109 168 -282 291 -484 345 -61 16
-110 22 -205 22 -153 0 -227 -16 -365 -83 -380 -183 -557 -621 -415 -1024 16
-44 27 -82 26 -84 -20 -19 -1631 -765 -1793 -829 -7 -3 -28 31 -52 83 -109
233 -301 442 -526 573 l-64 37 55 100 c556 1001 1157 2206 1480 2968 31 72 61
136 67 143 14 13 767 183 1213 272 1468 295 2640 431 3366 391z m-4395 -42
c-4 -12 -50 -131 -104 -265 -75 -185 -102 -243 -117 -247 -11 -3 -21 -4 -23
-3 -1 2 48 123 110 270 69 164 117 267 126 267 9 0 11 -7 8 -22z m-336 -820
c-354 -819 -846 -1815 -1348 -2728 -74 -135 -138 -249 -142 -253 -11 -11 -38
2 -38 18 0 8 4 15 8 15 4 0 13 16 20 35 7 19 17 35 22 35 4 0 5 5 2 10 -3 6
-2 10 4 10 5 0 15 16 22 35 7 19 17 35 22 35 4 0 5 5 2 10 -3 6 -2 10 4 10 5
0 15 16 22 35 7 19 17 35 22 35 4 0 5 5 2 10 -3 6 -1 10 6 10 7 0 9 3 6 6 -3
4 3 18 13 32 11 13 20 31 20 38 0 8 5 14 11 14 5 0 7 5 4 10 -3 6 -1 10 6 10
7 0 9 3 6 6 -3 4 3 18 13 32 11 13 20 31 20 38 0 8 5 14 11 14 5 0 7 5 4 10
-3 6 -1 10 5 10 6 0 8 5 5 10 -3 6 -2 10 3 10 5 0 17 20 28 45 10 25 22 45 27
45 4 0 5 5 2 10 -3 6 -1 10 5 10 6 0 8 5 5 10 -3 6 -2 10 3 10 5 0 20 25 33
55 13 30 27 55 32 55 4 0 5 5 2 10 -3 6 -1 10 5 10 6 0 8 5 5 10 -3 6 -1 10 5
10 6 0 8 5 5 10 -3 6 -2 10 3 10 5 0 15 15 22 33 8 17 19 39 26 47 7 8 12 17
12 20 -2 14 15 50 23 50 6 0 7 5 4 10 -3 6 -1 10 5 10 6 0 8 5 5 10 -3 6 -1
10 5 10 6 0 8 5 5 10 -3 6 -2 10 3 10 5 0 24 34 42 75 18 41 37 75 41 75 5 0
8 4 7 8 -4 12 44 112 54 112 5 0 6 5 3 10 -3 6 -1 10 5 10 6 0 8 5 5 10 -3 6
-1 10 5 10 6 0 8 5 5 10 -3 6 -1 10 5 10 6 0 8 5 5 10 -3 6 -1 10 5 10 6 0 8
5 5 10 -3 6 -1 10 5 10 6 0 8 5 5 10 -3 6 -1 10 5 10 6 0 8 5 5 10 -3 6 -1 10
5 10 6 0 8 5 5 10 -3 6 -1 10 5 10 6 0 8 5 5 10 -3 6 -1 10 5 10 6 0 8 5 5 10
-3 6 -1 10 5 10 6 0 8 5 5 10 -3 6 -1 10 5 10 6 0 8 5 5 10 -3 6 -1 10 5 10 6
0 8 5 5 10 -3 6 -1 10 5 10 6 0 8 5 5 10 -3 6 -1 10 5 10 6 0 8 5 5 10 -3 6
-1 10 5 10 6 0 8 5 5 10 -3 6 -1 10 5 10 6 0 8 5 5 10 -3 6 -1 10 5 10 6 0 8
5 5 10 -3 6 -1 10 5 10 6 0 8 5 5 10 -3 6 -1 10 5 10 6 0 8 5 5 10 -3 6 -1 10
5 10 6 0 9 4 5 9 -3 5 1 16 9 24 8 8 12 17 9 21 -4 3 -1 6 6 6 7 0 9 5 6 10
-3 6 -1 10 5 10 6 0 8 5 5 10 -3 6 -1 10 5 10 6 0 8 5 5 10 -3 6 -1 10 5 10 6
0 8 5 5 10 -3 6 -2 10 3 10 5 0 9 6 9 13 0 6 61 140 135 297 125 261 353 759
423 922 21 48 35 68 50 70 11 2 21 3 23 2 1 -1 -33 -84 -77 -186z m-86 -15
c-392 -889 -821 -1753 -1327 -2673 -77 -140 -143 -258 -147 -263 -4 -4 -41 4
-82 18 -154 53 -354 79 -544 71 -276 -11 -522 -76 -706 -186 -45 -28 -84 -50
-86 -50 -1 0 -3 47 -3 105 0 100 -1 105 -22 110 -13 2 -135 16 -273 30 -137
14 -268 27 -290 30 -37 4 -38 4 -13 -6 l28 -11 -6 -391 c-4 -216 -9 -443 -13
-506 l-6 -114 -200 249 c-109 137 -232 289 -272 337 l-73 88 0 204 c0 204 0
205 -22 209 -24 6 -308 36 -333 36 -7 0 -66 62 -130 138 l-117 137 8 501 c3
276 9 570 13 655 l6 153 85 27 c1309 416 3003 894 4265 1204 187 46 341 84
342 84 0 1 -36 -83 -82 -186z m5505 -286 c0 -2 -15 -16 -32 -33 l-33 -29 29
33 c28 30 36 37 36 29z m-110 -101 c0 -2 -8 -10 -17 -17 -16 -13 -17 -12 -4 4
13 16 21 21 21 13z m-70 -60 c0 -2 -8 -10 -17 -17 -16 -13 -17 -12 -4 4 13 16
21 21 21 13z m-446 -325 c9 -15 -330 -259 -559 -402 -38 -24 -72 -47 -75 -50
-8 -11 -292 -187 -516 -321 -251 -150 -415 -244 -714 -410 -355 -197 -418
-229 -424 -219 -7 11 -4 13 314 186 705 384 1634 947 1800 1092 25 21 60 49
78 62 17 12 32 31 32 41 0 26 51 42 64 21z m-10673 -348 c13 -16 12 -17 -3 -4
-17 13 -22 21 -14 21 2 0 10 -8 17 -17z m64 -73 c10 -11 16 -20 13 -20 -3 0
-13 9 -23 20 -10 11 -16 20 -13 20 3 0 13 -9 23 -20z m75 -85 c13 -14 21 -25
18 -25 -2 0 -15 11 -28 25 -13 14 -21 25 -18 25 2 0 15 -11 28 -25z m398 -60
c5 -4 2 -358 -2 -362 -3 -3 -230 253 -279 314 -18 22 -18 22 25 34 74 20 141
28 198 22 30 -3 57 -6 58 -8z m-328 -20 c13 -14 21 -25 18 -25 -2 0 -15 11
-28 25 -13 14 -21 25 -18 25 2 0 15 -11 28 -25z m125 -283 l198 -227 -1 -305
c-2 -273 -9 -460 -18 -460 -1 0 -15 5 -30 10 -30 12 -338 50 -399 50 -31 -1
-36 -3 -23 -11 16 -9 17 -37 11 -367 -5 -309 -8 -360 -22 -376 -24 -28 -134
-75 -236 -101 -49 -13 -83 -26 -75 -28 32 -11 348 -42 406 -40 72 3 204 42
289 87 33 17 64 33 69 35 6 2 7 -109 3 -275 -4 -154 -12 -634 -18 -1069 -7
-434 -15 -799 -20 -811 -5 -16 -86 -49 -397 -161 -214 -78 -400 -145 -413
-148 -23 -5 -25 -1 -50 103 -33 134 -102 301 -177 424 -80 131 -248 297 -403
400 -169 111 -345 211 -684 386 -394 203 -591 308 -640 342 -73 51 -175 168
-211 244 -62 130 -81 299 -48 436 22 94 81 207 139 266 l50 52 107 1 c169 3
337 -50 463 -145 28 -21 41 -28 31 -16 -19 22 -19 22 3 22 12 0 31 5 42 10 13
7 19 7 19 0 0 -5 5 -10 11 -10 5 0 7 5 4 10 -3 6 3 10 14 10 12 0 21 5 21 11
0 6 6 9 14 6 7 -3 19 0 25 6 6 6 11 7 11 2 0 -5 10 1 23 12 29 28 115 56 146
48 68 -17 159 -109 225 -228 66 -119 124 -323 141 -499 l7 -66 -43 -28 c-58
-36 -151 -74 -186 -75 -16 0 -23 -3 -16 -5 20 -9 655 55 723 72 82 21 139 52
146 80 7 26 -9 173 -37 339 -98 585 -316 930 -744 1174 -159 91 -441 185 -582
195 -28 2 -56 7 -62 10 -6 4 -47 11 -92 16 -45 5 -83 11 -85 13 -7 7 979 351
1696 592 366 123 456 157 458 172 4 23 11 43 14 43 2 0 93 -102 203 -228z
m-55 203 c13 -14 21 -25 18 -25 -2 0 -15 11 -28 25 -13 14 -21 25 -18 25 2 0
15 -11 28 -25z m66 -77 l29 -33 -32 29 c-18 17 -33 31 -33 33 0 8 8 1 36 -29z
m70 -80 l29 -33 -32 29 c-18 17 -33 31 -33 33 0 8 8 1 36 -29z m331 -385 c736
-859 1423 -1702 2136 -2620 7 -9 5 -13 -5 -13 -8 0 -75 78 -148 173 -489 630
-1119 1408 -1723 2127 -253 301 -286 341 -347 417 -39 48 -162 195 -193 231
-11 12 -18 22 -15 22 4 0 136 -152 295 -337z m-1332 289 c-3 -3 -11 0 -18 7
-9 10 -8 11 6 5 10 -3 15 -9 12 -12z m-30 -10 c-3 -3 -11 0 -18 7 -9 10 -8 11
6 5 10 -3 15 -9 12 -12z m-30 -10 c-3 -3 -11 0 -18 7 -9 10 -8 11 6 5 10 -3
15 -9 12 -12z m-55 -16 c0 -6 -93 -37 -97 -32 -2 2 15 11 39 19 47 17 58 19
58 13z m-265 -94 c-3 -3 -11 0 -18 7 -9 10 -8 11 6 5 10 -3 15 -9 12 -12z
m-30 -10 c-3 -3 -11 0 -18 7 -9 10 -8 11 6 5 10 -3 15 -9 12 -12z m-27 -7 c-3
-3 -52 -21 -108 -40 -73 -25 -107 -32 -114 -24 -8 7 -6 8 7 4 10 -4 17 -2 17
5 0 6 4 9 9 6 4 -3 46 8 92 23 84 30 107 35 97 26z m-273 -95 c-71 -33 -821
-291 -837 -288 -22 3 527 202 555 200 9 0 17 3 17 9 0 5 3 8 8 7 14 -5 102 25
102 34 0 5 4 6 10 3 5 -3 20 0 32 6 13 7 32 14 43 15 11 1 31 7 45 13 31 12
52 13 25 1z m9348 -51 c119 -39 218 -138 258 -258 30 -88 24 -212 -13 -294
-37 -79 -116 -160 -196 -199 -113 -56 -280 -50 -383 15 -188 116 -255 358
-150 546 52 93 160 177 258 200 68 16 159 12 226 -10z m-14303 -81 c8 -13 3
-21 -23 -37 l-32 -20 -3 46 c-2 25 0 53 3 62 5 13 9 12 26 -9 11 -14 24 -32
29 -42z m3250 -481 c0 -2 -15 -16 -32 -33 l-33 -29 29 33 c28 30 36 37 36 29z
m-161 -52 c-8 -9 -188 -81 -400 -161 -211 -80 -412 -156 -447 -170 -35 -13
-62 -19 -60 -13 2 7 161 71 353 144 193 73 397 150 455 173 124 48 118 46 99
27z m4386 -93 c-2 -3 -20 -1 -40 2 -34 7 -35 9 -35 49 l1 42 39 -45 c22 -24
37 -46 35 -48z m-4474 1 c-123 -147 -216 -320 -280 -517 -44 -136 -68 -262
-31 -161 4 11 7 23 6 26 0 3 7 13 17 23 9 10 17 23 17 29 0 18 97 80 114 74 9
-4 18 -1 22 5 4 6 3 8 -4 4 -6 -3 -14 -2 -17 4 -4 6 -3 10 2 9 21 -4 33 3 34
19 1 15 2 15 6 -1 3 -11 11 -16 19 -13 9 3 12 1 9 -4 -3 -6 -1 -10 4 -10 6 0
11 6 11 14 0 17 18 24 84 32 51 6 53 5 60 -20 3 -14 0 -81 -8 -148 -43 -363
-23 -653 65 -953 87 -301 178 -453 401 -676 66 -65 117 -123 113 -129 -4 -6
-1 -9 7 -8 8 2 13 -7 13 -27 0 -37 -32 -55 -95 -54 -36 0 -41 2 -25 10 17 8
16 9 -7 6 -16 -3 -28 0 -28 6 0 6 -3 7 -7 3 -5 -4 8 -21 27 -38 32 -27 32 -28
5 -11 -36 22 -82 23 -77 3 3 -11 -1 -10 -15 3 -11 9 -35 20 -54 23 -19 4 -45
12 -59 19 -14 7 -31 10 -37 8 -7 -3 -13 0 -13 6 0 6 -3 10 -7 10 -20 -3 -35 5
-99 51 -65 47 -66 48 -24 10 126 -115 423 -291 837 -496 335 -166 495 -253
606 -331 48 -33 73 -46 65 -33 -11 17 -11 22 2 31 8 5 25 8 38 6 12 -2 22 0
22 5 0 6 7 7 16 4 13 -5 14 -4 6 7 -17 20 -4 27 25 16 31 -12 36 -11 28 1 -3
6 -2 10 4 10 5 0 12 -6 15 -12 3 -7 4 -4 3 6 -5 47 125 76 190 43 67 -35 203
-218 203 -273 0 -6 -87 -41 -192 -77 -106 -36 -432 -146 -725 -246 l-532 -180
-40 47 c-63 73 -131 313 -161 562 -14 119 -16 126 -43 134 -12 3 -100 -4 -196
-15 -174 -22 -174 -22 -190 -2 -9 11 -196 236 -416 499 -220 263 -412 495
-426 514 l-26 35 9 480 c13 662 -3 972 -63 1254 -12 51 -17 97 -12 101 4 5
181 74 393 154 212 81 394 151 405 156 36 16 37 10 6 -27z m-2401 -173 c0 -6
25 -44 56 -85 l55 -74 -176 -283 c-98 -156 -179 -284 -180 -286 -3 -3 -259
-112 -313 -133 -22 -8 -23 -7 -16 29 40 235 80 377 145 511 66 135 156 228
280 290 78 39 149 54 149 31z m688 -34 c41 -21 133 -123 176 -193 113 -189
151 -392 166 -898 8 -284 -6 -1432 -36 -2942 l-6 -332 -47 -15 c-262 -85
-1385 -403 -1971 -560 -663 -176 -1474 -379 -1496 -374 -23 6 345 813 654
1436 164 332 574 1123 579 1118 2 -2 -2 -343 -8 -757 -10 -616 -15 -757 -26
-770 -32 -38 -259 -119 -332 -119 -70 0 18 -12 347 -46 329 -35 369 -37 435
-26 90 16 174 53 186 84 8 19 52 2352 51 2704 l0 100 247 411 246 412 271 110
c149 60 278 113 287 116 12 4 37 -21 93 -94 42 -56 78 -101 80 -101 9 0 -18
129 -31 150 -9 14 -82 111 -163 215 -162 211 -165 215 -152 215 5 0 76 -87
158 -194 82 -107 150 -193 151 -192 7 7 -22 74 -30 69 -6 -4 -8 0 -4 10 10 26
-13 68 -33 62 -12 -4 -44 31 -122 133 -86 113 -104 141 -94 153 6 9 18 16 26
17 53 4 140 24 146 34 3 5 15 6 27 3 12 -2 16 -2 9 1 -15 7 14 25 88 55 55 22
92 24 128 5z m-548 -18 c23 -26 27 -46 4 -28 -16 14 -38 50 -30 50 3 0 14 -10
26 -22z m12470 14 c0 -9 -95 -56 -560 -275 -1836 -863 -4067 -1779 -6410
-2630 -572 -208 -778 -280 -765 -269 6 6 60 28 120 50 1597 583 2254 833 3379
1284 1462 586 2968 1245 4096 1792 114 55 140 64 140 48z m-12331 -339 l81
-107 -157 -64 c-87 -35 -180 -73 -207 -83 l-48 -20 21 33 c11 18 65 104 118
190 54 87 101 158 104 158 3 0 43 -48 88 -107z m7429 -461 l251 -313 -6 -412
c-3 -227 -8 -415 -12 -419 -13 -14 -1171 -461 -1178 -454 -5 5 23 1685 28
1691 2 1 58 -3 124 -11 254 -28 385 -12 463 59 20 19 22 29 22 129 l0 109 28
-33 c16 -18 142 -174 280 -346z m-7303 289 c-12 -10 -506 -211 -519 -211 -29
0 35 30 255 120 227 92 288 113 264 91z m-717 -287 c-18 -19 -269 -126 -277
-119 -8 9 5 16 146 75 158 67 153 65 131 44z m-31 -51 c-17 -31 -270 -449
-274 -453 -6 -5 5 181 16 288 l6 63 125 54 c69 29 126 53 128 54 2 1 1 -2 -1
-6z m9696 -127 l58 -26 -15 -27 c-8 -16 -71 -120 -139 -233 l-125 -205 -237
-98 c-131 -53 -240 -95 -243 -92 -3 2 8 55 23 117 81 335 208 512 432 603 56
23 56 23 122 5 36 -11 92 -30 124 -44z m547 9 c40 -21 125 -114 115 -124 -14
-14 -676 -293 -681 -288 -5 4 168 291 180 299 7 5 7 8 1 8 -20 1 21 20 43 20
23 0 62 18 74 35 4 6 8 1 8 -10 0 -11 4 -15 8 -10 4 6 18 16 32 23 14 7 39 20
55 29 78 43 110 46 165 18z m-407 -95 c10 -13 10 -13 -5 -2 -14 11 -26 -3
-100 -125 -47 -76 -97 -159 -112 -185 -17 -29 -38 -50 -56 -56 -25 -9 -28 -8
-23 6 4 9 9 19 12 22 4 3 12 16 19 30 15 32 33 60 50 78 6 7 12 20 12 28 0 8
4 14 9 14 5 0 11 8 15 18 3 9 10 24 15 32 53 84 100 173 95 182 -10 15 55 -24
69 -42z m625 -187 c114 -250 138 -652 112 -1913 -5 -256 -10 -541 -10 -634 l0
-169 -52 74 c-300 432 -794 1112 -1174 1617 l-122 162 170 273 c94 149 177
279 184 287 12 12 832 366 855 369 3 1 20 -29 37 -66z m-974 -335 c-41 -74
-299 -478 -304 -478 -4 0 -13 6 -19 14 -9 11 -9 17 2 27 21 22 197 305 197
317 0 7 5 12 10 12 6 0 10 7 10 15 0 8 4 15 9 15 5 0 13 10 17 22 8 27 21 40
54 55 32 15 32 15 24 1z m-230 -232 c-63 -102 -119 -186 -122 -186 -10 1 -166
209 -161 214 7 7 394 164 397 161 1 -1 -50 -86 -114 -189z m-260 -41 c26 -36
52 -65 57 -65 5 0 9 -5 9 -11 0 -6 57 -86 126 -177 1276 -1682 2388 -3334
3196 -4748 212 -370 219 -382 210 -388 -4 -2 -77 118 -162 267 -710 1245
-1668 2709 -2579 3942 -205 278 -699 937 -823 1098 -81 106 -105 147 -84 147
1 0 24 -29 50 -65z m-6733 -395 c139 -168 327 -393 418 -500 210 -247 198
-232 178 -224 -29 11 -857 1001 -857 1025 0 7 2 10 4 8 2 -2 117 -141 257
-309z m6795 125 c-74 -119 -130 -204 -133 -201 -5 5 17 346 23 365 3 8 27 -17
64 -65 52 -70 57 -81 46 -99z m-776 -47 c0 -61 -11 -775 -25 -1587 -22 -1284
-28 -1477 -41 -1492 -24 -27 -131 -71 -240 -99 l-101 -26 366 -38 c324 -34
373 -37 431 -26 75 14 152 44 175 70 18 20 17 -28 45 1653 l19 1138 23 37 c12
20 66 104 119 186 l97 149 226 -303 c352 -469 649 -879 989 -1365 l189 -270
-7 -520 c-4 -286 -10 -590 -14 -675 l-6 -155 -74 -37 c-67 -33 -215 -77 -266
-79 -48 -2 21 -11 345 -45 218 -22 366 -34 403 -30 93 9 168 35 203 70 l30 31
3 255 c1 140 3 256 5 257 3 3 258 -394 451 -702 294 -470 571 -937 820 -1384
l108 -193 -17 -90 c-9 -50 -15 -92 -12 -95 2 -3 35 -9 73 -15 l69 -11 97 -187
97 -187 -70 -48 c-268 -182 -389 -542 -300 -889 49 -191 194 -372 365 -456
110 -55 202 -72 375 -74 93 0 177 4 209 12 44 10 56 10 62 0 15 -23 148 -440
183 -573 86 -324 120 -545 120 -790 0 -146 -4 -200 -22 -284 -55 -263 -207
-434 -442 -498 -107 -29 -359 -24 -524 11 -764 161 -1900 832 -3308 1954
l-197 157 52 8 c181 27 300 64 417 129 123 69 195 140 272 268 112 187 148
366 117 586 -13 98 -47 189 -105 281 -105 169 -228 233 -799 418 -148 48 -287
96 -308 107 -130 66 -180 193 -123 314 54 117 144 162 341 171 122 6 192 -5
270 -41 97 -45 158 -137 192 -288 13 -55 22 -78 33 -78 32 1 420 67 426 73 9
8 -24 188 -48 262 -62 192 -180 334 -340 412 -321 157 -727 149 -1004 -18
-226 -137 -357 -404 -341 -694 9 -165 79 -341 177 -448 94 -103 290 -195 654
-307 357 -110 423 -140 465 -205 62 -97 63 -182 6 -297 -53 -106 -124 -155
-266 -184 -159 -32 -334 -4 -446 73 -94 63 -160 193 -194 377 -10 52 -16 65
-28 62 -9 -3 -109 -21 -223 -42 -178 -32 -208 -40 -210 -56 -2 -14 -41 15
-166 127 l-162 146 0 437 c1 463 -4 541 -45 672 -43 134 -137 260 -245 330
-63 41 -179 87 -280 113 -116 29 -451 32 -577 4 -105 -22 -222 -62 -296 -99
l-58 -29 -181 173 c-99 95 -188 184 -198 198 l-18 26 65 79 c145 178 430 534
606 758 l187 238 187 4 c104 2 211 9 238 14 28 6 64 13 80 15 106 17 225 46
266 67 48 24 62 43 55 76 -7 33 -76 760 -76 800 0 19 23 60 69 123 55 77 69
105 75 144 l6 49 -86 -119 c-63 -88 -92 -120 -110 -122 -13 -2 -24 -1 -24 2 0
2 50 73 110 157 70 97 110 162 110 178 0 31 8 41 -143 -171 l-127 -176 -113
-7 c-182 -10 -250 22 -312 148 -55 113 -58 159 -51 847 4 333 9 653 12 711 l7
106 411 157 c226 87 488 188 581 226 94 37 173 68 178 69 4 1 7 -49 7 -111z
m-5618 -698 c76 -89 94 -116 80 -119 -9 -2 -55 -9 -102 -15 l-85 -12 45 -14
45 -15 21 -155 c34 -248 72 -421 133 -606 16 -49 28 -90 27 -90 -3 -3 -803
-253 -828 -260 l-28 -6 0 163 c0 90 7 524 15 964 8 440 15 835 15 878 l0 78
282 -338 c155 -186 326 -390 380 -453z m6446 708 c2 -9 -42 -85 -97 -169 -78
-120 -101 -148 -101 -127 0 42 15 74 97 201 72 111 94 131 101 95z m-5768
-218 c0 -5 -4 -10 -10 -10 -5 0 -10 5 -10 10 0 6 5 10 10 10 6 0 10 -4 10 -10z
m3114 -742 c-13 -518 -11 -1060 4 -1193 18 -152 46 -274 87 -382 43 -110 87
-179 189 -297 87 -101 94 -129 41 -156 -16 -8 -32 -17 -35 -20 -6 -6 -22 -10
-55 -12 -14 -1 -25 -5 -25 -9 0 -7 -20 -9 -85 -8 -92 1 -123 9 -175 46 -33 23
-32 22 5 -11 56 -50 225 -132 316 -153 l76 -18 -206 -261 c-113 -144 -296
-372 -405 -508 l-200 -247 -89 88 c-49 48 -235 240 -414 425 -179 186 -328
336 -332 333 -5 -2 -23 12 -42 33 l-34 37 38 -34 c20 -19 37 -31 37 -25 0 13
-155 166 -161 160 -3 -3 -25 16 -50 42 l-44 47 43 -40 c23 -21 42 -35 42 -29
0 13 -125 136 -131 130 -3 -3 -27 18 -55 47 l-49 52 48 -45 c26 -24 47 -40 47
-34 0 13 -115 126 -121 119 -3 -2 -21 12 -40 33 l-34 37 38 -34 c20 -19 37
-30 37 -25 0 6 -11 21 -25 34 -27 26 -32 40 -12 40 26 0 247 114 337 175 85
56 205 167 273 250 132 162 277 487 326 732 38 189 52 483 32 680 l-7 73 41
15 c336 124 753 274 764 274 12 1 13 -52 5 -361z m-1269 -68 c-27 -12 -43 -12
-25 0 8 5 22 9 30 9 10 0 8 -3 -5 -9z m-185 -64 c0 -2 -9 -6 -20 -9 -11 -3
-18 -1 -14 4 5 9 34 13 34 5z m-14 -58 c4 -12 7 -63 8 -113 1 -122 -23 -173
-97 -209 -63 -30 -147 -45 -147 -26 0 8 -7 5 -17 -7 -19 -21 -48 -20 -37 0 5
8 2 8 -7 0 -14 -14 -110 -18 -108 -5 1 4 0 23 -1 42 -2 30 -4 25 -16 -30 -31
-144 -101 -297 -175 -383 -67 -78 -101 -90 -238 -85 -97 4 -132 10 -214 38
-54 18 -104 39 -112 46 -7 7 -15 11 -19 9 -3 -3 -4 -2 -1 1 2 4 -48 65 -111
136 -63 72 -114 132 -112 134 2 2 235 82 518 178 283 96 592 201 685 234 94
33 175 61 182 61 6 1 15 -9 19 -21z m-1336 -558 c46 -52 95 -108 109 -123 17
-19 20 -26 9 -22 -9 4 -19 13 -22 21 -3 9 -11 12 -17 8 -7 -4 -9 -3 -5 4 9 14
-43 74 -57 65 -7 -3 -9 -3 -5 2 10 10 -50 85 -65 82 -7 -1 -11 3 -10 10 1 6
-4 17 -12 23 -8 7 -15 17 -15 23 0 6 2 8 3 6 2 -2 41 -47 87 -99z m-754 -187
c82 -184 198 -355 358 -522 129 -136 140 -163 76 -196 -60 -31 -300 -41 -283
-11 4 6 -2 4 -12 -4 -11 -9 -16 -10 -11 -2 4 7 1 12 -9 12 -20 0 -49 17 -110
63 l-50 39 45 -43 c104 -97 307 -209 490 -268 128 -41 253 -66 445 -86 229
-25 413 -12 638 46 l78 20 72 -78 c317 -342 700 -745 1040 -1096 l249 -256
-127 -151 -126 -150 -199 0 -200 0 0 -98 0 -98 -68 67 c-77 75 -187 134 -307
165 -108 28 -344 26 -448 -4 -250 -72 -468 -275 -583 -544 -93 -216 -142 -451
-151 -713 -9 -261 20 -471 94 -679 l35 -99 -200 -200 -201 -201 -11 28 c-5 15
-17 66 -25 113 -18 105 -36 823 -33 1323 2 319 1 352 -19 442 -51 235 -176
389 -386 476 -143 60 -265 82 -462 82 -287 0 -547 -76 -711 -209 -146 -119
-267 -357 -309 -608 -6 -39 -5 -41 22 -47 65 -13 415 -67 417 -64 1 2 13 39
25 83 74 261 152 345 351 381 183 33 361 4 484 -77 83 -55 120 -152 132 -345
7 -96 6 -102 -14 -113 -41 -22 -272 -72 -512 -111 -399 -65 -495 -94 -636
-191 -140 -97 -232 -221 -289 -390 -69 -203 -52 -472 40 -648 98 -186 251
-309 450 -362 110 -30 353 -32 470 -5 158 36 322 117 460 226 51 41 75 55 75
44 0 -9 16 -65 36 -125 l36 -108 92 -3 92 -3 -146 -137 c-999 -938 -2031
-1730 -2920 -2241 -695 -399 -1348 -649 -1865 -713 -457 -58 -831 13 -1132
213 -84 56 -240 209 -307 303 -33 45 -90 142 -126 214 -351 694 -347 1822 11
3296 93 385 228 851 247 858 6 2 84 -8 173 -23 89 -14 163 -24 165 -22 3 2 16
44 30 93 31 108 81 217 118 262 141 165 616 159 761 -10 51 -60 75 -147 82
-294 l6 -120 -75 -23 c-101 -29 -324 -74 -537 -106 -228 -35 -347 -65 -448
-115 -167 -82 -283 -200 -359 -365 -55 -120 -74 -209 -74 -352 0 -154 19 -253
69 -358 92 -193 256 -332 458 -387 103 -27 360 -30 469 -5 179 41 378 144 501
260 l33 31 6 -33 c4 -18 21 -74 38 -124 l31 -92 244 -3 c193 -2 242 0 238 10
-106 259 -115 305 -127 648 -5 157 -10 510 -10 785 0 616 -8 693 -88 855 -51
105 -160 213 -262 262 -179 86 -324 112 -570 105 -172 -5 -258 -19 -386 -62
-75 -25 -182 -76 -242 -116 l-32 -21 11 28 c6 16 40 110 76 209 140 387 465
1193 486 1207 6 4 18 8 25 8 24 0 885 215 1282 320 651 171 1523 416 2100 589
161 48 165 48 168 28 3 -13 -5 -28 -17 -38 -29 -24 -161 -77 -218 -89 -27 -6
-64 -14 -83 -18 l-35 -9 40 -6 c135 -23 640 -68 705 -64 91 6 170 29 207 61
l28 24 5 177 5 177 345 108 c190 60 386 122 435 138 50 17 98 30 108 31 13 1
26 -16 43 -56z m-10176 -597 c0 -2 -8 -10 -17 -17 -16 -13 -17 -12 -4 4 13 16
21 21 21 13z m-100 -90 c0 -2 -8 -10 -17 -17 -16 -13 -17 -12 -4 4 13 16 21
21 21 13z m14245 -606 c3 -6 -58 -92 -136 -193 -368 -470 -1025 -1276 -1041
-1277 -5 0 -8 13 -8 29 0 22 46 83 216 287 218 261 643 787 833 1032 97 124
121 146 136 122z m-9302 -187 c-49 -111 -166 -400 -255 -628 -382 -981 -655
-1859 -828 -2665 l-49 -225 0 1638 -1 1637 -117 1 -118 0 145 30 c266 54 933
199 1075 233 190 46 179 48 148 -21z m7753 -145 l29 -33 -32 29 c-31 28 -38
36 -30 36 2 0 16 -15 33 -32z m-9817 -1344 c-193 -659 -355 -1203 -360 -1209
-5 -5 -3 11 4 35 7 25 168 574 358 1221 189 647 345 1171 347 1164 2 -6 -155
-552 -349 -1211z m301 1168 c0 -5 -153 -530 -341 -1168 -187 -637 -368 -1254
-402 -1371 -34 -116 -64 -209 -67 -207 -6 7 -31 90 -413 1427 -172 603 -311
1097 -307 1097 4 0 132 16 286 35 321 41 776 110 1044 159 102 19 188 34 193
35 4 1 7 -3 7 -7z m8309 -1089 c-197 -202 -283 -399 -358 -818 -7 -39 -9 -43
-10 -18 -2 47 35 247 63 344 65 224 182 418 321 530 33 27 62 49 64 49 3 0
-34 -39 -80 -87z m4504 25 c-94 -101 -148 -197 -188 -334 -28 -97 -40 -120
-30 -59 14 88 60 209 105 279 39 60 140 166 158 166 2 0 -17 -24 -45 -52z
m-6813 8 c0 -2 -8 -10 -17 -17 -16 -13 -17 -12 -4 4 13 16 21 21 21 13z
m11050 0 c0 -2 -8 -10 -17 -17 -16 -13 -17 -12 -4 4 13 16 21 21 21 13z
m-15723 -69 c-78 -96 -122 -178 -186 -352 l-11 -30 6 35 c18 102 98 258 179
348 61 67 67 67 12 -1z m4585 -26 c-50 -63 -124 -207 -153 -298 -27 -86 -38
-90 -14 -6 37 126 102 252 168 321 44 46 44 40 -1 -17z m4632 37 c-4 -7 -24
-35 -45 -63 -41 -56 -90 -150 -125 -240 -28 -72 -32 -60 -5 16 27 81 73 167
126 237 42 55 69 83 49 50z m6423 -30 c-68 -86 -131 -211 -168 -336 -7 -23
-14 -40 -17 -38 -6 6 26 111 55 180 30 73 84 160 126 204 43 45 45 40 4 -10z
m-7948 -147 c83 -26 148 -69 226 -153 59 -62 65 -72 52 -86 -70 -83 -430 -479
-586 -645 -108 -115 -221 -236 -252 -270 l-56 -62 -7 30 c-28 138 -34 397 -11
568 29 224 87 369 188 474 140 146 287 194 446 144z m2366 4 c174 -33 268
-108 304 -241 15 -55 29 -211 24 -255 -5 -33 -9 -37 -57 -52 -29 -10 -59 -17
-67 -17 -8 0 -75 57 -149 127 -213 201 -430 411 -430 416 0 5 28 12 125 31 48
9 179 5 250 -9z m6423 5 c129 -21 234 -76 283 -149 34 -52 58 -154 66 -282 6
-91 5 -97 -15 -108 -41 -22 -272 -72 -512 -111 -243 -40 -409 -74 -442 -91
-14 -8 -29 13 -93 137 -43 80 -75 147 -72 150 2 3 35 0 71 -7 37 -6 68 -10 70
-8 1 2 13 40 25 84 56 199 123 302 223 345 103 44 267 61 396 40z m-7461 -222
c-3 -8 -6 -5 -6 6 -1 11 2 17 5 13 3 -3 4 -12 1 -19z m-9220 -30 c-3 -8 -6 -5
-6 6 -1 11 2 17 5 13 3 -3 4 -12 1 -19z m8020 -286 c-206 -228 -433 -475 -623
-675 l-102 -108 -7 32 c-6 27 -2 36 27 68 19 20 111 117 204 216 168 178 518
562 624 682 l54 63 14 -25 c13 -25 7 -32 -191 -253z m252 88 c86 -316 60 -777
-56 -1019 -48 -101 -142 -195 -248 -247 -76 -38 -83 -39 -180 -39 -99 0 -103
1 -186 42 -46 23 -105 61 -131 83 -57 49 -121 143 -143 210 l-17 50 39 43 c21
24 114 124 207 223 93 98 284 306 424 461 140 156 258 281 262 278 4 -3 17
-41 29 -85z m7670 -150 c45 -88 78 -160 74 -160 -4 0 -44 68 -88 152 -93 176
-89 168 -77 168 5 0 46 -72 91 -160z m-15801 -347 c-123 -126 -173 -229 -221
-458 -3 -11 -5 -2 -6 21 -3 97 61 265 140 372 35 46 130 132 147 132 4 0 -23
-30 -60 -67z m4611 10 c-101 -104 -168 -225 -203 -365 -25 -97 -40 -127 -31
-58 25 172 121 355 232 442 27 21 50 38 53 38 2 0 -21 -26 -51 -57z m4589 -22
c-104 -111 -158 -217 -199 -391 -21 -90 -25 -46 -5 50 32 151 114 295 213 375
30 25 57 45 60 45 3 0 -28 -36 -69 -79z m6439 -1 c-80 -87 -147 -213 -182
-340 -28 -105 -40 -128 -30 -55 24 164 120 350 223 430 25 19 47 35 50 35 2 0
-25 -32 -61 -70z m-9801 -152 c-15 -293 -50 -397 -182 -537 -59 -62 -92 -89
-147 -116 -99 -48 -185 -68 -292 -69 -185 0 -302 65 -356 200 -19 48 -24 77
-24 154 0 117 20 167 96 240 75 72 105 81 533 165 142 28 266 62 375 104 2 0
1 -63 -3 -141z m4604 -24 c-17 -254 -37 -324 -125 -450 -103 -145 -229 -218
-423 -245 -130 -18 -287 20 -355 86 -41 40 -80 118 -97 196 -10 44 -10 71 -1
124 16 91 39 133 106 192 65 58 123 79 330 119 272 52 383 77 475 108 52 17
96 31 98 30 1 -1 -2 -72 -8 -160z m6441 -44 c-14 -180 -32 -256 -78 -338 -48
-87 -159 -202 -230 -239 -58 -31 -161 -68 -168 -61 -2 2 -40 86 -85 188 -45
102 -113 249 -150 327 l-68 142 111 25 c62 13 194 41 295 60 101 20 227 51
280 68 l97 33 3 -30 c2 -16 -1 -95 -7 -175z m-15654 48 c-12 -260 -44 -362
-156 -495 -102 -121 -218 -181 -396 -205 -160 -20 -318 32 -383 127 -68 100
-87 226 -51 344 17 56 103 152 162 179 53 25 172 54 357 87 147 26 400 88 429
105 43 25 44 18 38 -142z m9240 -135 c-3 -10 -5 -4 -5 12 0 17 2 24 5 18 2 -7
2 -21 0 -30z m5606 -119 c55 -120 167 -374 194 -443 13 -30 -186 13 -250 55
-109 71 -165 253 -123 397 17 58 81 150 99 144 7 -2 42 -71 80 -153z m66 91
c0 -5 -6 1 -14 15 -8 14 -14 30 -14 35 0 6 6 -1 14 -15 8 -14 14 -29 14 -35z
m-10293 -75 c-21 -100 -45 -157 -101 -236 -41 -57 -121 -134 -139 -134 -4 0
16 24 44 54 108 114 162 212 187 346 10 50 19 82 21 70 2 -12 -4 -57 -12 -100z
m11054 22 c-17 -97 -43 -163 -95 -242 -43 -65 -117 -140 -138 -140 -5 0 20 31
56 70 84 91 142 205 165 323 19 100 30 90 12 -11z m-15665 -47 c-28 -121 -118
-263 -208 -327 -20 -14 -6 7 41 61 86 100 146 216 164 316 8 42 14 60 16 44 2
-15 -4 -57 -13 -94z m9210 -7 c-8 -35 -29 -91 -46 -126 -30 -62 -133 -183
-173 -204 -12 -6 2 14 31 44 100 107 189 279 194 375 l2 28 4 -27 c2 -15 -3
-56 -12 -90z m5765 -43 c0 -5 -5 -3 -10 5 -5 8 -10 20 -10 25 0 6 5 3 10 -5 5
-8 10 -19 10 -25z m-8105 -34 c-21 -43 -29 -39 -8 4 9 19 18 33 21 31 2 -2 -4
-18 -13 -35z m4545 -123 c-19 -53 -91 -148 -111 -148 -5 0 6 20 25 45 36 47
79 131 93 180 8 30 8 30 11 4 2 -14 -6 -51 -18 -81z m-4589 44 c-5 -9 -19 -26
-32 -37 -17 -15 -15 -10 7 17 32 41 40 48 25 20z m-1267 -108 c6 -18 -26 -54
-196 -219 -183 -178 -203 -195 -215 -179 -7 10 -13 23 -13 30 0 17 403 405
411 396 4 -4 10 -17 13 -28z m-565 -577 c-20 -18 -110 -101 -200 -186 -1198
-1125 -2409 -1996 -3409 -2450 -151 -69 -138 -60 70 49 576 301 1082 627 1700
1093 550 416 1162 936 1705 1450 75 72 83 76 125 76 l45 0 -36 -32z m1946 -59
c-9 -86 -31 -160 -70 -238 -32 -64 -117 -170 -137 -170 -5 0 11 24 37 53 77
87 165 297 165 394 0 12 3 23 6 23 3 0 3 -28 -1 -62z"/>
<path d="M10619 12293 c-12 -16 -12 -17 2 -6 9 7 20 9 24 5 5 -4 5 -1 1 6 -9
16 -11 15 -27 -5z"/>
<path d="M10532 12130 c0 -14 2 -19 5 -12 2 6 2 18 0 25 -3 6 -5 1 -5 -13z"/>
<path d="M10522 12070 c0 -19 2 -27 5 -17 2 9 2 25 0 35 -3 9 -5 1 -5 -18z"/>
<path d="M10513 11985 c0 -22 2 -30 4 -17 2 12 2 30 0 40 -3 9 -5 -1 -4 -23z"/>
<path d="M11304 10419 c-3 -6 -1 -16 5 -22 9 -9 10 -7 5 7 -6 15 -4 17 6 11 9
-5 11 -4 6 3 -9 15 -13 15 -22 1z"/>
<path d="M19415 5984 c-136 -21 -260 -70 -382 -150 -107 -69 -163 -121 -232
-214 -72 -97 -121 -195 -171 -348 -66 -203 -82 -309 -87 -599 -6 -275 3 -383
42 -556 93 -412 367 -739 690 -822 158 -41 382 -43 530 -5 253 65 495 298 605
583 40 101 81 272 83 344 l2 57 -175 26 c-96 15 -195 30 -220 34 l-46 7 -13
-78 c-32 -191 -91 -340 -165 -414 -78 -79 -219 -139 -326 -139 -145 0 -323
105 -410 240 -155 242 -181 898 -49 1241 55 143 165 255 309 316 56 24 79 28
165 28 95 0 104 -2 177 -37 44 -21 94 -54 118 -79 51 -53 111 -176 141 -289
12 -47 25 -88 29 -92 6 -8 426 65 436 75 9 9 -34 201 -63 281 -103 290 -314
495 -583 567 -74 20 -331 34 -405 23z m-480 -271 c-38 -38 -87 -94 -111 -125
-95 -128 -181 -356 -224 -593 -19 -105 -20 -107 -15 -37 14 194 103 470 197
606 58 84 189 216 215 216 3 0 -25 -30 -62 -67z m-358 -875 c-3 -7 -5 -2 -5
12 0 14 2 19 5 13 2 -7 2 -19 0 -25z m1500 -580 c-3 -7 -5 -2 -5 12 0 14 2 19
5 13 2 -7 2 -19 0 -25z m-27 -135 c-30 -121 -87 -237 -145 -293 l-47 -45 48
65 c61 81 107 181 136 293 13 48 24 83 26 77 2 -5 -6 -49 -18 -97z"/>
<path d="M8730 6325 l0 -564 -65 49 c-94 71 -191 126 -270 152 -61 20 -89 23
-215 23 -159 -1 -223 -13 -338 -66 -139 -63 -308 -220 -393 -365 -126 -215
-202 -515 -215 -854 -13 -313 34 -583 145 -840 123 -282 369 -510 621 -577 86
-23 305 -23 408 0 133 29 255 97 319 178 l33 42 0 -92 0 -91 210 0 210 0 0
1785 0 1785 -225 0 -225 0 0 -565z m-1102 -602 c-126 -131 -193 -245 -258
-442 -22 -64 -48 -163 -59 -221 -36 -183 -39 -197 -40 -168 -2 46 19 179 44
278 70 276 193 491 349 608 50 38 41 24 -36 -55z m766 -227 c233 -114 346
-372 363 -821 10 -272 -29 -520 -105 -675 -49 -100 -152 -204 -248 -251 -64
-31 -76 -34 -164 -34 -88 0 -101 3 -165 34 -104 51 -210 160 -262 271 -79 165
-107 328 -108 605 0 374 60 608 191 754 104 114 210 164 341 158 70 -3 92 -9
157 -41z m226 -1610 c0 -2 -8 -10 -17 -17 -16 -13 -17 -12 -4 4 13 16 21 21
21 13z"/>
<path d="M5683 13889 l27 -11 0 -162 c0 -147 -9 -729 -55 -3391 -8 -478 -18
-1074 -21 -1323 l-7 -453 -66 -33 c-78 -40 -230 -86 -281 -86 -66 0 18 -11
349 -45 327 -35 372 -37 435 -26 84 14 174 55 186 85 5 11 18 599 30 1306 12
706 22 1285 23 1286 1 1 106 48 232 104 234 104 254 115 242 126 -3 4 -109
-39 -234 -95 -126 -55 -231 -101 -235 -101 -32 0 24 29 232 120 l239 105 1 33
c0 17 -3 32 -7 31 -5 0 -111 -47 -238 -103 -126 -57 -231 -103 -231 -102 -1 1
9 600 21 1331 13 732 20 1333 17 1336 -4 4 -146 21 -317 38 -170 18 -323 34
-340 36 l-30 5 28 -11z"/>
<path d="M23739 5977 c-94 -27 -210 -119 -277 -219 l-27 -42 -3 107 -3 107
-209 0 -210 0 2 -1302 3 -1303 222 -3 221 -2 5 752 c3 489 9 785 16 843 42
319 112 460 257 515 105 39 194 24 327 -57 32 -19 60 -34 61 -32 2 2 36 109
76 237 56 176 71 238 64 250 -17 27 -156 107 -230 131 -85 28 -229 37 -295 18z
m-176 -149 c-43 -47 -79 -97 -113 -159 -16 -30 -30 -49 -30 -44 0 32 144 235
168 235 3 0 -8 -15 -25 -32z m-150 -233 c-7 -21 -13 -19 -13 6 0 11 4 18 10
14 5 -3 7 -12 3 -20z"/>
</g>
</svg>
